<svg width="1035" height="1062" viewBox="0 0 1035 1062" fill="none" xmlns="http://www.w3.org/2000/svg">
    <circle id="moon" cx="419.5" cy="598.5" r="332.5" fill="black"/>
    <g id="sun">
    <g id="Group 1">
    <line id="Line 1" x1="517.237" y1="198.392" x2="523.237" y2="863.392" stroke="#CECECE" stroke-width="6"/>
    <line id="Line 11" x1="431.886" y1="209.532" x2="608.373" y2="850.713" stroke="#CECECE" stroke-width="6"/>
    <line id="Line 10" x1="757.735" y1="301.278" x2="280.921" y2="764.861" stroke="#CECECE" stroke-width="6"/>
    <line id="Line 9" x1="719.868" y1="267.262" x2="319.396" y2="798.189" stroke="#CECECE" stroke-width="6"/>
    <line id="Line 8" x1="698.064" y1="251.857" x2="341.474" y2="813.198" stroke="#CECECE" stroke-width="6"/>
    <line id="Line 7" x1="657.112" y1="229.241" x2="382.828" y2="835.071" stroke="#CECECE" stroke-width="6"/>
    <line id="Line 6" x1="623.845" y1="215.944" x2="416.33" y2="847.766" stroke="#CECECE" stroke-width="6"/>
    <line id="Line 5" x1="485.503" y1="199.909" x2="554.938" y2="861.302" stroke="#CECECE" stroke-width="6"/>
    <line id="Line 4" x1="472.22" y1="201.453" x2="568.191" y2="859.519" stroke="#CECECE" stroke-width="6"/>
    <line id="Line 3" x1="603.548" y1="209.788" x2="436.735" y2="853.554" stroke="#CECECE" stroke-width="6"/>
    <line id="Line 2" x1="546.683" y1="199.698" x2="493.772" y2="862.617" stroke="#CECECE" stroke-width="6"/>
    </g>
    <g id="Group 2">
    <line id="Line 1_2" x1="818.766" y1="390.725" x2="218.286" y2="676.53" stroke="#CECECE" stroke-width="6"/>
    <line id="Line 11_2" x1="772.68" y1="318.027" x2="265.676" y2="748.385" stroke="#CECECE" stroke-width="6"/>
    <line id="Line 10_2" x1="826.865" y1="652.181" x2="205.471" y2="415.262" stroke="#CECECE" stroke-width="6"/>
    <line id="Line 9_2" x1="841.746" y1="603.503" x2="191.472" y2="464.202" stroke="#CECECE" stroke-width="6"/>
    <line id="Line 8_2" x1="846.523" y1="577.237" x2="187.17" y2="490.55" stroke="#CECECE" stroke-width="6"/>
    <line id="Line 7_2" x1="849.764" y1="530.568" x2="184.771" y2="537.27" stroke="#CECECE" stroke-width="6"/>
    <line id="Line 6_2" x1="847.796" y1="494.795" x2="187.384" y2="573.001" stroke="#CECECE" stroke-width="6"/>
    <line id="Line 5_2" x1="804.011" y1="362.589" x2="233.547" y2="704.395" stroke="#CECECE" stroke-width="6"/>
    <line id="Line 4_2" x1="797.011" y1="351.195" x2="240.751" y2="715.661" stroke="#CECECE" stroke-width="6"/>
    <line id="Line 3_2" x1="844.821" y1="473.795" x2="190.737" y2="593.944" stroke="#CECECE" stroke-width="6"/>
    <line id="Line 2_2" x1="829.996" y1="417.977" x2="206.566" y2="649.485" stroke="#CECECE" stroke-width="6"/>
    <g id="Group 1_2">
    <line id="Line 1_3" x1="798.313" y1="708.6" x2="233.001" y2="358.338" stroke="#CECECE" stroke-width="6"/>
    <line id="Line 11_3" x1="834.502" y1="630.503" x2="198.227" y2="437.075" stroke="#CECECE" stroke-width="6"/>
    <line id="Line 10_3" x1="582.839" y1="856.911" x2="445.764" y2="206.164" stroke="#CECECE" stroke-width="6"/>
    <line id="Line 9_3" x1="631.826" y1="843.079" x2="397.035" y2="220.877" stroke="#CECECE" stroke-width="6"/>
    <line id="Line 8_3" x1="656.498" y1="832.88" x2="372.551" y2="231.519" stroke="#CECECE" stroke-width="6"/>
    <line id="Line 7_3" x1="697.496" y1="810.349" x2="331.966" y2="254.787" stroke="#CECECE" stroke-width="6"/>
    <line id="Line 6_3" x1="726.512" y1="789.334" x2="303.334" y2="276.322" stroke="#CECECE" stroke-width="6"/>
    <line id="Line 5_3" x1="813.986" y1="680.966" x2="217.829" y2="386.251" stroke="#CECECE" stroke-width="6"/>
    <line id="Line 4_3" x1="819.779" y1="668.913" x2="212.254" y2="398.406" stroke="#CECECE" stroke-width="6"/>
    <line id="Line 3_3" x1="742.56" y1="775.467" x2="287.538" y2="290.476" stroke="#CECECE" stroke-width="6"/>
    <line id="Line 2_3" x1="781.474" y1="732.792" x2="249.4" y2="333.846" stroke="#CECECE" stroke-width="6"/>
    </g>
    </g>
    </g>
    <g id="extra">
    <g id="Group 3">
    <line id="Line 1_4" x1="835.329" y1="627.832" x2="197.45" y2="439.76" stroke="#CECECE" stroke-width="6"/>
    <line id="Line 11_4" x1="849.548" y1="542.94" x2="184.766" y2="524.895" stroke="#CECECE" stroke-width="6"/>
    <line id="Line 10_4" x1="666.817" y1="827.904" x2="362.325" y2="236.68" stroke="#CECECE" stroke-width="6"/>
    <line id="Line 9_4" x1="710.393" y1="801.595" x2="319.231" y2="263.772" stroke="#CECECE" stroke-width="6"/>
    <line id="Line 8_4" x1="731.484" y1="785.228" x2="298.439" y2="280.517" stroke="#CECECE" stroke-width="6"/>
    <line id="Line 7_4" x1="765.053" y1="752.644" x2="265.463" y2="313.701" stroke="#CECECE" stroke-width="6"/>
    <line id="Line 6_4" x1="787.468" y1="724.697" x2="243.556" y2="342.048" stroke="#CECECE" stroke-width="6"/>
    <line id="Line 5_4" x1="843.126" y1="597.034" x2="190.21" y2="470.694" stroke="#CECECE" stroke-width="6"/>
    <line id="Line 4_4" x1="845.521" y1="583.877" x2="188.053" y2="483.892" stroke="#CECECE" stroke-width="6"/>
    <line id="Line 3_4" x1="799.272" y1="707.075" x2="232.072" y2="359.88" stroke="#CECECE" stroke-width="6"/>
    <line id="Line 2_4" x1="825.498" y1="655.619" x2="206.779" y2="411.8" stroke="#CECECE" stroke-width="6"/>
    <g id="Group 1_3">
    <line id="Line 1_5" x1="607.895" y1="850.849" x2="420.824" y2="212.676" stroke="#CECECE" stroke-width="6"/>
    <line id="Line 11_5" x1="686.976" y1="816.862" x2="342.369" y2="248.085" stroke="#CECECE" stroke-width="6"/>
    <line id="Line 10_5" x1="348.457" y1="817.427" x2="680.823" y2="241.412" stroke="#CECECE" stroke-width="6"/>
    <line id="Line 9_5" x1="394.164" y1="839.831" x2="634.719" y2="219.836" stroke="#CECECE" stroke-width="6"/>
    <line id="Line 8_5" x1="419.341" y1="848.709" x2="609.385" y2="211.414" stroke="#CECECE" stroke-width="6"/>
    <line id="Line 7_5" x1="464.908" y1="859.302" x2="563.635" y2="201.645" stroke="#CECECE" stroke-width="6"/>
    <line id="Line 6_5" x1="500.54" y1="863.026" x2="527.942" y2="198.564" stroke="#CECECE" stroke-width="6"/>
    <line id="Line 5_5" x1="638.013" y1="840.738" x2="390.893" y2="223.329" stroke="#CECECE" stroke-width="6"/>
    <line id="Line 4_5" x1="650.372" y1="835.631" x2="378.628" y2="228.658" stroke="#CECECE" stroke-width="6"/>
    <line id="Line 3_5" x1="521.746" y1="863.415" x2="506.732" y2="198.558" stroke="#CECECE" stroke-width="6"/>
    <line id="Line 2_5" x1="579.208" y1="857.62" x2="449.384" y2="205.388" stroke="#CECECE" stroke-width="6"/>
    </g>
    </g>
    <g id="Group 4">
    <line id="Line 1_6" x1="443.105" y1="855.077" x2="585.512" y2="205.476" stroke="#CECECE" stroke-width="6"/>
    <line id="Line 11_6" x1="528.792" y1="863.245" x2="499.692" y2="198.855" stroke="#CECECE" stroke-width="6"/>
    <line id="Line 10_6" x1="231.596" y1="701.163" x2="799.761" y2="355.548" stroke="#CECECE" stroke-width="6"/>
    <line id="Line 9_6" x1="260.927" y1="742.765" x2="769.685" y2="314.482" stroke="#CECECE" stroke-width="6"/>
    <line id="Line 8_6" x1="278.747" y1="762.643" x2="751.509" y2="294.928" stroke="#CECECE" stroke-width="6"/>
    <line id="Line 7_6" x1="313.627" y1="793.819" x2="716.072" y2="264.387" stroke="#CECECE" stroke-width="6"/>
    <line id="Line 6_6" x1="343.092" y1="814.199" x2="686.244" y2="244.542" stroke="#CECECE" stroke-width="6"/>
    <line id="Line 12" x1="303.424" y1="785.591" x2="726.421" y2="272.43" stroke="#CECECE" stroke-width="6"/>
    <line id="Line 13" x1="332.064" y1="807.116" x2="697.398" y2="251.425" stroke="#CECECE" stroke-width="6"/>
    <line id="Line 14" x1="293.38" y1="776.809" x2="736.622" y2="281.029" stroke="#CECECE" stroke-width="6"/>
    <line id="Line 15" x1="321.133" y1="799.465" x2="708.465" y2="258.878" stroke="#CECECE" stroke-width="6"/>
    <line id="Line 16" x1="191.257" y1="596.573" x2="841.981" y2="459.393" stroke="#CECECE" stroke-width="6"/>
    <line id="Line 17" x1="200.212" y1="631.262" x2="832.401" y2="424.871" stroke="#CECECE" stroke-width="6"/>
    <line id="Line 5_6" x1="474.379" y1="860.672" x2="554.143" y2="200.446" stroke="#CECECE" stroke-width="6"/>
    <line id="Line 4_6" x1="487.672" y1="862.129" x2="540.826" y2="199.229" stroke="#CECECE" stroke-width="6"/>
    <line id="Line 3_6" x1="361.507" y1="824.725" x2="667.644" y2="234.351" stroke="#CECECE" stroke-width="6"/>
    <line id="Line 2_6" x1="414.691" y1="847.239" x2="614.062" y2="212.8" stroke="#CECECE" stroke-width="6"/>
    <g id="Group 1_4">
    <line id="Line 1_7" x1="204.534" y1="644.014" x2="827.85" y2="412.199" stroke="#CECECE" stroke-width="6"/>
    <line id="Line 11_7" x1="244.039" y1="720.488" x2="786.972" y2="336.451" stroke="#CECECE" stroke-width="6"/>
    <line id="Line 10_7" x1="219.491" y1="382.86" x2="817.607" y2="673.581" stroke="#CECECE" stroke-width="6"/>
    <line id="Line 9_7" x1="200.382" y1="430.039" x2="835.862" y2="626.064" stroke="#CECECE" stroke-width="6"/>
    <line id="Line 8_7" x1="193.31" y1="455.782" x2="842.468" y2="600.198" stroke="#CECECE" stroke-width="6"/>
    <line id="Line 7_7" x1="185.972" y1="501.985" x2="848.972" y2="553.87" stroke="#CECECE" stroke-width="6"/>
    <line id="Line 6_7" x1="184.782" y1="537.791" x2="849.516" y2="518.048" stroke="#CECECE" stroke-width="6"/>
    <line id="Line 5_7" x1="216.754" y1="673.34" x2="815.103" y2="383.099" stroke="#CECECE" stroke-width="6"/>
    <line id="Line 4_7" x1="222.723" y1="685.306" x2="808.919" y2="371.242" stroke="#CECECE" stroke-width="6"/>
    <line id="Line 3_7" x1="185.896" y1="558.972" x2="848.019" y2="496.891" stroke="#CECECE" stroke-width="6"/>
    <line id="Line 2_7" x1="195.747" y1="615.879" x2="837.143" y2="440.171" stroke="#CECECE" stroke-width="6"/>
    </g>
    <g id="Group 2_2">
    <line id="Line 1_8" x1="807.48" y1="693.194" x2="224.114" y2="373.906" stroke="#CECECE" stroke-width="6"/>
    <line id="Line 11_8" x1="839.408" y1="613.26" x2="193.633" y2="454.404" stroke="#CECECE" stroke-width="6"/>
    <line id="Line 10_8" x1="600.312" y1="852.901" x2="428.366" y2="210.487" stroke="#CECECE" stroke-width="6"/>
    <line id="Line 9_8" x1="648.482" y1="836.449" x2="380.501" y2="227.806" stroke="#CECECE" stroke-width="6"/>
    <line id="Line 8_8" x1="672.569" y1="824.936" x2="356.626" y2="239.752" stroke="#CECECE" stroke-width="6"/>
    <line id="Line 7_8" x1="712.293" y1="800.228" x2="317.354" y2="265.173" stroke="#CECECE" stroke-width="6"/>
    <line id="Line 6_8" x1="740.134" y1="777.68" x2="289.924" y2="288.219" stroke="#CECECE" stroke-width="6"/>
    <line id="Line 5_8" x1="821.642" y1="664.755" x2="210.467" y2="402.597" stroke="#CECECE" stroke-width="6"/>
    <line id="Line 4_8" x1="826.777" y1="652.408" x2="205.556" y2="415.035" stroke="#CECECE" stroke-width="6"/>
    <line id="Line 3_8" x1="755.412" y1="762.968" x2="274.914" y2="303.204" stroke="#CECECE" stroke-width="6"/>
    <line id="Line 2_8" x1="791.97" y1="718.258" x2="239.169" y2="348.566" stroke="#CECECE" stroke-width="6"/>
    </g>
    </g>
    </g>

</svg>
